{"glyphs":{"\u0000":{"ha":0,"x_min":0,"x_max":0,"o":""},"\n":{"ha":0,"x_min":0,"x_max":0,"o":""},"\r":{"ha":0,"x_min":0,"x_max":0,"o":""}," ":{"ha":454,"x_min":0,"x_max":0,"o":""},"A":{"ha":1002,"x_min":35,"x_max":960,"o":"m 582 812 l 960 0 l 791 0 l 497 631 l 203 0 l 35 0 l 413 812 l 497 994 l 582 812 z "},"À":{"ha":1002,"x_min":35,"x_max":960,"o":"m 582 812 l 960 0 l 791 0 l 497 631 l 203 0 l 35 0 l 413 812 l 497 994 l 582 812 z "},"Á":{"ha":1002,"x_min":35,"x_max":960,"o":"m 582 812 l 960 0 l 791 0 l 497 631 l 203 0 l 35 0 l 413 812 l 497 994 l 582 812 z "},"Â":{"ha":1002,"x_min":35,"x_max":960,"o":"m 582 812 l 960 0 l 791 0 l 497 631 l 203 0 l 35 0 l 413 812 l 497 994 l 582 812 z "},"Ã":{"ha":1002,"x_min":35,"x_max":960,"o":"m 582 812 l 960 0 l 791 0 l 497 631 l 203 0 l 35 0 l 413 812 l 497 994 l 582 812 z "},"Ä":{"ha":1002,"x_min":35,"x_max":960,"o":"m 582 812 l 960 0 l 791 0 l 497 631 l 203 0 l 35 0 l 413 812 l 497 994 l 582 812 z "},"Å":{"ha":1002,"x_min":35,"x_max":960,"o":"m 582 812 l 960 0 l 791 0 l 497 631 l 203 0 l 35 0 l 413 812 l 497 994 l 582 812 z "},"B":{"ha":780,"x_min":35,"x_max":736,"o":"m 455 401 l 288 401 l 288 169 l 496 169 q 547 190 526 169 q 568 240 568 210 l 568 401 l 736 401 l 736 275 q 656 80 736 161 q 462 0 576 0 l 118 0 l 118 674 l 288 674 l 288 570 l 486 570 q 544 594 519 570 q 568 652 568 618 l 568 803 l 118 803 l 118 804 l 35 804 l 118 972 l 568 972 l 568 972 l 735 972 l 735 972 l 736 972 l 736 803 l 736 683 q 654 484 736 566 q 455 401 572 401 z "},"C":{"ha":908,"x_min":35,"x_max":866,"o":"m 519 169 q 644 195 585 169 q 748 269 703 222 l 866 151 q 709 40 798 79 q 519 0 620 0 q 331 39 420 0 q 176 145 241 79 q 73 304 111 212 q 35 497 35 396 q 73 690 35 598 q 176 849 111 783 q 331 955 241 916 q 519 994 420 994 q 709 955 620 994 q 866 844 798 915 l 748 726 q 519 825 653 825 q 293 729 387 825 q 199 497 199 633 q 293 265 199 361 q 519 169 387 169 z "},"Ç":{"ha":908,"x_min":35,"x_max":866,"o":"m 519 169 q 644 195 585 169 q 748 269 703 222 l 866 151 q 709 40 798 79 q 519 0 620 0 q 331 39 420 0 q 176 145 241 79 q 73 304 111 212 q 35 497 35 396 q 73 690 35 598 q 176 849 111 783 q 331 955 241 916 q 519 994 420 994 q 709 955 620 994 q 866 844 798 915 l 748 726 q 519 825 653 825 q 293 729 387 825 q 199 497 199 633 q 293 265 199 361 q 519 169 387 169 z "},"D":{"ha":904,"x_min":35,"x_max":861,"o":"m 375 972 q 564 934 474 972 q 719 830 654 895 q 823 675 784 765 q 861 486 861 585 q 823 297 861 387 q 719 142 784 208 q 564 39 654 77 q 375 0 474 0 l 118 0 l 118 674 l 288 674 l 288 169 l 375 169 q 599 262 506 169 q 692 486 692 355 q 650 645 692 572 q 534 761 608 718 q 375 803 461 803 l 118 803 l 118 804 l 35 804 l 118 972 l 118 972 l 375 972 z "},"E":{"ha":825,"x_min":35,"x_max":781,"o":"m 288 674 l 288 169 l 781 169 l 781 0 l 118 0 l 118 674 l 288 674 m 371 385 l 288 385 l 371 553 l 689 553 l 689 385 l 371 385 m 118 972 l 781 972 l 781 803 l 118 803 l 118 804 l 35 804 l 118 972 z "},"È":{"ha":825,"x_min":35,"x_max":781,"o":"m 288 674 l 288 169 l 781 169 l 781 0 l 118 0 l 118 674 l 288 674 m 371 385 l 288 385 l 371 553 l 689 553 l 689 385 l 371 385 m 118 972 l 781 972 l 781 803 l 118 803 l 118 804 l 35 804 l 118 972 z "},"É":{"ha":825,"x_min":35,"x_max":781,"o":"m 288 674 l 288 169 l 781 169 l 781 0 l 118 0 l 118 674 l 288 674 m 371 385 l 288 385 l 371 553 l 689 553 l 689 385 l 371 385 m 118 972 l 781 972 l 781 803 l 118 803 l 118 804 l 35 804 l 118 972 z "},"Ê":{"ha":825,"x_min":35,"x_max":781,"o":"m 288 674 l 288 169 l 781 169 l 781 0 l 118 0 l 118 674 l 288 674 m 371 385 l 288 385 l 371 553 l 689 553 l 689 385 l 371 385 m 118 972 l 781 972 l 781 803 l 118 803 l 118 804 l 35 804 l 118 972 z "},"Ë":{"ha":825,"x_min":35,"x_max":781,"o":"m 288 674 l 288 169 l 781 169 l 781 0 l 118 0 l 118 674 l 288 674 m 371 385 l 288 385 l 371 553 l 689 553 l 689 385 l 371 385 m 118 972 l 781 972 l 781 803 l 118 803 l 118 804 l 35 804 l 118 972 z "},"F":{"ha":825,"x_min":35,"x_max":781,"o":"m 118 674 l 288 674 l 288 0 l 118 0 l 118 674 m 371 553 l 689 553 l 689 385 l 371 385 l 288 385 l 371 553 m 118 972 l 781 972 l 781 803 l 118 803 l 118 804 l 35 804 l 118 972 z "},"G":{"ha":1046,"x_min":35,"x_max":1004,"o":"m 519 553 l 1004 553 l 1004 497 q 997 412 1004 451 q 994 396 996 407 q 991 385 991 386 q 822 109 954 218 q 519 0 690 0 q 331 39 420 0 q 176 145 241 79 q 73 304 111 212 q 35 497 35 396 q 73 690 35 598 q 176 849 111 783 q 331 955 241 916 q 519 994 420 994 q 727 946 629 994 q 892 814 824 899 l 765 707 q 656 794 720 762 q 519 825 592 825 q 293 729 387 825 q 199 497 199 633 q 293 265 199 361 q 519 169 387 169 q 703 229 621 169 q 819 385 785 289 l 435 385 l 519 553 l 519 553 z "},"H":{"ha":786,"x_min":35,"x_max":743,"o":"m 574 972 l 743 972 l 743 0 l 574 0 l 574 385 l 288 385 l 203 385 l 288 553 l 574 553 l 574 972 m 35 972 l 203 972 l 203 0 l 35 0 l 35 972 z "},"I":{"ha":332,"x_min":35,"x_max":288,"o":"m 118 972 l 288 972 l 288 0 l 118 0 l 118 804 l 35 804 l 118 972 z "},"Ì":{"ha":332,"x_min":35,"x_max":288,"o":"m 118 972 l 288 972 l 288 0 l 118 0 l 118 804 l 35 804 l 118 972 z "},"Í":{"ha":332,"x_min":35,"x_max":288,"o":"m 118 972 l 288 972 l 288 0 l 118 0 l 118 804 l 35 804 l 118 972 z "},"Î":{"ha":332,"x_min":35,"x_max":288,"o":"m 118 972 l 288 972 l 288 0 l 118 0 l 118 804 l 35 804 l 118 972 z "},"Ï":{"ha":332,"x_min":35,"x_max":288,"o":"m 118 972 l 288 972 l 288 0 l 118 0 l 118 804 l 35 804 l 118 972 z "},"J":{"ha":593,"x_min":35,"x_max":551,"o":"m 382 972 l 551 972 l 551 0 l 309 0 q 115 80 195 0 q 35 275 35 161 l 35 401 l 203 401 l 203 240 q 224 190 203 210 q 275 169 245 169 l 382 169 l 382 804 l 299 804 l 382 972 z "},"K":{"ha":667,"x_min":35,"x_max":623,"o":"m 296 441 q 460 397 385 441 q 579 278 536 353 q 623 115 623 203 l 623 0 l 454 0 l 454 110 q 406 224 454 177 q 292 272 359 272 l 287 272 l 287 0 l 118 0 l 118 804 l 35 804 l 118 972 l 287 972 l 287 444 l 454 972 l 623 972 l 455 441 l 287 441 l 296 441 z "},"L":{"ha":728,"x_min":35,"x_max":691,"o":"m 691 169 l 691 0 l 288 0 l 119 0 l 118 0 l 118 169 l 119 169 l 119 804 l 35 804 l 118 972 l 119 972 l 288 972 l 288 169 l 691 169 z "},"M":{"ha":1082,"x_min":35,"x_max":1038,"o":"m 288 0 l 118 0 l 118 674 l 288 674 l 288 0 m 1038 972 l 1038 804 l 1038 0 l 869 0 l 869 803 l 663 359 l 578 177 l 494 359 l 287 804 l 118 804 l 35 804 l 118 972 l 118 972 l 377 972 l 377 972 l 385 954 l 433 852 l 578 540 l 724 852 l 779 972 l 948 972 l 948 972 l 1038 972 l 1038 972 z "},"N":{"ha":871,"x_min":35,"x_max":827,"o":"m 288 0 l 118 0 l 118 674 l 288 674 l 288 0 m 658 972 l 827 972 l 827 0 l 658 266 l 316 804 l 118 804 l 35 804 l 118 972 l 118 972 l 209 972 l 377 972 l 658 550 l 658 972 z "},"Ñ":{"ha":871,"x_min":35,"x_max":827,"o":"m 288 0 l 118 0 l 118 674 l 288 674 l 288 0 m 658 972 l 827 972 l 827 0 l 658 266 l 316 804 l 118 804 l 35 804 l 118 972 l 118 972 l 209 972 l 377 972 l 658 550 l 658 972 z "},"O":{"ha":1046,"x_min":35,"x_max":1004,"o":"m 519 994 q 708 955 618 994 q 862 849 798 916 q 965 690 927 783 q 1004 497 1004 598 q 965 304 1004 396 q 862 145 927 212 q 708 39 798 79 q 519 0 618 0 q 331 39 420 0 q 176 145 241 79 q 73 304 111 212 q 35 497 35 396 q 73 690 35 598 q 176 849 111 783 q 331 955 241 916 q 519 994 420 994 m 293 265 q 340 217 293 265 q 519 169 387 169 q 745 265 652 169 q 839 497 839 361 q 745 729 839 633 q 519 825 652 825 q 293 729 387 825 q 199 497 199 633 q 293 265 199 361 z "},"Ò":{"ha":1046,"x_min":35,"x_max":1004,"o":"m 519 994 q 708 955 618 994 q 862 849 798 916 q 965 690 927 783 q 1004 497 1004 598 q 965 304 1004 396 q 862 145 927 212 q 708 39 798 79 q 519 0 618 0 q 331 39 420 0 q 176 145 241 79 q 73 304 111 212 q 35 497 35 396 q 73 690 35 598 q 176 849 111 783 q 331 955 241 916 q 519 994 420 994 m 293 265 q 340 217 293 265 q 519 169 387 169 q 745 265 652 169 q 839 497 839 361 q 745 729 839 633 q 519 825 652 825 q 293 729 387 825 q 199 497 199 633 q 293 265 199 361 z "},"Ó":{"ha":1046,"x_min":35,"x_max":1004,"o":"m 519 994 q 708 955 618 994 q 862 849 798 916 q 965 690 927 783 q 1004 497 1004 598 q 965 304 1004 396 q 862 145 927 212 q 708 39 798 79 q 519 0 618 0 q 331 39 420 0 q 176 145 241 79 q 73 304 111 212 q 35 497 35 396 q 73 690 35 598 q 176 849 111 783 q 331 955 241 916 q 519 994 420 994 m 293 265 q 340 217 293 265 q 519 169 387 169 q 745 265 652 169 q 839 497 839 361 q 745 729 839 633 q 519 825 652 825 q 293 729 387 825 q 199 497 199 633 q 293 265 199 361 z "},"Ô":{"ha":1046,"x_min":35,"x_max":1004,"o":"m 519 994 q 708 955 618 994 q 862 849 798 916 q 965 690 927 783 q 1004 497 1004 598 q 965 304 1004 396 q 862 145 927 212 q 708 39 798 79 q 519 0 618 0 q 331 39 420 0 q 176 145 241 79 q 73 304 111 212 q 35 497 35 396 q 73 690 35 598 q 176 849 111 783 q 331 955 241 916 q 519 994 420 994 m 293 265 q 340 217 293 265 q 519 169 387 169 q 745 265 652 169 q 839 497 839 361 q 745 729 839 633 q 519 825 652 825 q 293 729 387 825 q 199 497 199 633 q 293 265 199 361 z "},"Õ":{"ha":1046,"x_min":35,"x_max":1004,"o":"m 519 994 q 708 955 618 994 q 862 849 798 916 q 965 690 927 783 q 1004 497 1004 598 q 965 304 1004 396 q 862 145 927 212 q 708 39 798 79 q 519 0 618 0 q 331 39 420 0 q 176 145 241 79 q 73 304 111 212 q 35 497 35 396 q 73 690 35 598 q 176 849 111 783 q 331 955 241 916 q 519 994 420 994 m 293 265 q 340 217 293 265 q 519 169 387 169 q 745 265 652 169 q 839 497 839 361 q 745 729 839 633 q 519 825 652 825 q 293 729 387 825 q 199 497 199 633 q 293 265 199 361 z "},"Ö":{"ha":1046,"x_min":35,"x_max":1004,"o":"m 519 994 q 708 955 618 994 q 862 849 798 916 q 965 690 927 783 q 1004 497 1004 598 q 965 304 1004 396 q 862 145 927 212 q 708 39 798 79 q 519 0 618 0 q 331 39 420 0 q 176 145 241 79 q 73 304 111 212 q 35 497 35 396 q 73 690 35 598 q 176 849 111 783 q 331 955 241 916 q 519 994 420 994 m 293 265 q 340 217 293 265 q 519 169 387 169 q 745 265 652 169 q 839 497 839 361 q 745 729 839 633 q 519 825 652 825 q 293 729 387 825 q 199 497 199 633 q 293 265 199 361 z "},"Ø":{"ha":1046,"x_min":35,"x_max":1004,"o":"m 519 994 q 708 955 618 994 q 862 849 798 916 q 965 690 927 783 q 1004 497 1004 598 q 965 304 1004 396 q 862 145 927 212 q 708 39 798 79 q 519 0 618 0 q 331 39 420 0 q 176 145 241 79 q 73 304 111 212 q 35 497 35 396 q 73 690 35 598 q 176 849 111 783 q 331 955 241 916 q 519 994 420 994 m 293 265 q 340 217 293 265 q 519 169 387 169 q 745 265 652 169 q 839 497 839 361 q 745 729 839 633 q 519 825 652 825 q 293 729 387 825 q 199 497 199 633 q 293 265 199 361 z "},"P":{"ha":905,"x_min":35,"x_max":861,"o":"m 567 972 q 775 886 688 972 q 861 678 861 800 q 775 471 861 557 q 567 385 688 385 l 288 385 l 288 0 l 118 0 l 118 674 l 288 674 l 288 553 l 567 553 q 656 590 619 553 q 692 678 692 627 q 656 766 692 730 q 567 803 619 803 l 118 803 l 118 804 l 35 804 l 118 972 l 567 972 z "},"Q":{"ha":1040,"x_min":35,"x_max":1004,"o":"m 1004 497 q 970 315 1004 401 q 875 160 936 229 l 1004 0 l 835 0 l 774 75 l 668 207 l 435 497 l 604 497 l 768 292 q 839 497 839 382 q 745 729 839 633 q 519 825 651 825 q 293 729 387 825 q 199 497 199 633 q 266 297 199 385 q 435 180 332 209 l 435 7 q 231 97 322 28 q 87 272 140 166 q 35 497 35 377 q 73 690 35 598 q 176 849 111 783 q 330 955 241 916 q 519 994 420 994 q 707 955 618 994 q 862 849 797 916 q 965 690 927 783 q 1004 497 1004 598 z "},"R":{"ha":965,"x_min":35,"x_max":922,"o":"m 753 0 l 536 385 l 288 385 l 288 0 l 118 0 l 118 674 l 288 674 l 288 553 l 567 553 q 656 590 619 553 q 692 678 692 627 q 656 766 692 730 q 567 803 619 803 l 118 803 l 118 804 l 35 804 l 118 972 l 567 972 q 775 886 688 972 q 861 678 861 800 q 814 518 861 591 q 689 411 766 446 l 922 0 l 753 0 z "},"S":{"ha":819,"x_min":35,"x_max":778,"o":"m 501 553 q 697 472 616 553 q 778 277 778 391 q 697 81 778 162 q 501 0 616 0 l 118 0 l 35 0 l 118 169 l 501 169 q 577 200 546 169 q 608 277 608 232 q 577 353 608 321 q 501 385 546 385 l 328 385 q 121 471 207 385 q 35 678 35 557 q 121 886 35 800 q 329 972 208 972 l 675 972 l 675 803 l 334 803 q 247 771 285 803 q 204 690 209 739 q 237 594 199 635 q 329 553 274 553 l 501 553 z "},"T":{"ha":755,"x_min":35,"x_max":714,"o":"m 714 972 l 714 803 l 500 803 l 500 0 l 332 0 l 332 803 l 118 803 l 118 804 l 35 804 l 118 972 l 714 972 z "},"U":{"ha":871,"x_min":35,"x_max":828,"o":"m 659 972 l 828 972 l 828 397 q 775 198 828 289 q 630 53 722 106 q 431 0 539 0 q 232 53 323 0 q 88 198 141 106 q 35 397 35 289 l 35 972 l 203 972 l 203 397 q 270 236 203 302 q 431 169 337 169 q 592 236 526 169 q 659 397 659 302 l 659 804 l 576 804 l 659 972 z "},"Ù":{"ha":871,"x_min":35,"x_max":828,"o":"m 659 972 l 828 972 l 828 397 q 775 198 828 289 q 630 53 722 106 q 431 0 539 0 q 232 53 323 0 q 88 198 141 106 q 35 397 35 289 l 35 972 l 203 972 l 203 397 q 270 236 203 302 q 431 169 337 169 q 592 236 526 169 q 659 397 659 302 l 659 804 l 576 804 l 659 972 z "},"Ú":{"ha":871,"x_min":35,"x_max":828,"o":"m 659 972 l 828 972 l 828 397 q 775 198 828 289 q 630 53 722 106 q 431 0 539 0 q 232 53 323 0 q 88 198 141 106 q 35 397 35 289 l 35 972 l 203 972 l 203 397 q 270 236 203 302 q 431 169 337 169 q 592 236 526 169 q 659 397 659 302 l 659 804 l 576 804 l 659 972 z "},"Û":{"ha":871,"x_min":35,"x_max":828,"o":"m 659 972 l 828 972 l 828 397 q 775 198 828 289 q 630 53 722 106 q 431 0 539 0 q 232 53 323 0 q 88 198 141 106 q 35 397 35 289 l 35 972 l 203 972 l 203 397 q 270 236 203 302 q 431 169 337 169 q 592 236 526 169 q 659 397 659 302 l 659 804 l 576 804 l 659 972 z "},"Ü":{"ha":871,"x_min":35,"x_max":828,"o":"m 659 972 l 828 972 l 828 397 q 775 198 828 289 q 630 53 722 106 q 431 0 539 0 q 232 53 323 0 q 88 198 141 106 q 35 397 35 289 l 35 972 l 203 972 l 203 397 q 270 236 203 302 q 431 169 337 169 q 592 236 526 169 q 659 397 659 302 l 659 804 l 576 804 l 659 972 z "},"V":{"ha":980,"x_min":28,"x_max":953,"o":"m 783 972 l 953 972 l 574 159 l 490 -22 l 406 160 l 28 972 l 197 972 l 490 341 l 783 972 z "},"W":{"ha":998,"x_min":35,"x_max":955,"o":"m 579 613 l 495 432 l 495 431 l 350 120 l 294 0 l 125 0 l 35 0 l 35 0 l 35 169 l 35 972 l 203 972 l 203 169 l 410 613 l 495 795 l 579 614 l 579 613 m 955 169 l 955 0 l 955 0 l 865 0 l 696 0 l 695 0 l 640 120 l 495 431 l 664 431 l 785 170 l 785 804 l 702 804 l 785 972 l 785 972 l 955 972 l 955 169 z "},"X":{"ha":614,"x_min":35,"x_max":572,"o":"m 403 972 l 572 972 l 572 647 l 439 482 l 411 446 l 411 446 l 439 411 l 572 245 l 572 0 l 403 0 l 403 186 l 403 186 l 303 311 l 203 186 l 203 0 l 35 0 l 35 245 l 167 411 l 195 446 l 195 446 l 167 482 l 35 647 l 35 972 l 203 972 l 203 707 l 204 707 l 303 582 l 403 707 l 403 804 l 319 804 l 403 972 l 403 972 z "},"Y":{"ha":817,"x_min":35,"x_max":774,"o":"m 605 972 l 774 972 l 774 972 l 320 0 l 150 0 l 404 540 l 404 541 l 605 972 m 203 972 l 259 852 l 404 541 l 235 541 l 113 803 l 113 804 l 35 972 l 35 972 l 203 972 z "},"Ý":{"ha":817,"x_min":35,"x_max":774,"o":"m 605 972 l 774 972 l 774 972 l 320 0 l 150 0 l 404 540 l 404 541 l 605 972 m 203 972 l 259 852 l 404 541 l 235 541 l 113 803 l 113 804 l 35 972 l 35 972 l 203 972 z "},"Ÿ":{"ha":817,"x_min":35,"x_max":774,"o":"m 605 972 l 774 972 l 774 972 l 320 0 l 150 0 l 404 540 l 404 541 l 605 972 m 203 972 l 259 852 l 404 541 l 235 541 l 113 803 l 113 804 l 35 972 l 35 972 l 203 972 z "},"Z":{"ha":821,"x_min":35,"x_max":779,"o":"m 779 972 l 304 169 l 696 169 l 696 0 l 35 0 l 135 169 l 510 803 l 118 803 l 118 972 l 779 972 z "},"a":{"ha":996,"x_min":35,"x_max":960,"o":"m 582 812 l 960 0 l 791 0 l 497 631 l 203 0 l 35 0 l 413 812 l 497 994 l 582 812 z "},"à":{"ha":996,"x_min":35,"x_max":960,"o":"m 582 812 l 960 0 l 791 0 l 497 631 l 203 0 l 35 0 l 413 812 l 497 994 l 582 812 z "},"á":{"ha":996,"x_min":35,"x_max":960,"o":"m 582 812 l 960 0 l 791 0 l 497 631 l 203 0 l 35 0 l 413 812 l 497 994 l 582 812 z "},"â":{"ha":996,"x_min":35,"x_max":960,"o":"m 582 812 l 960 0 l 791 0 l 497 631 l 203 0 l 35 0 l 413 812 l 497 994 l 582 812 z "},"ã":{"ha":996,"x_min":35,"x_max":960,"o":"m 582 812 l 960 0 l 791 0 l 497 631 l 203 0 l 35 0 l 413 812 l 497 994 l 582 812 z "},"ä":{"ha":996,"x_min":35,"x_max":960,"o":"m 582 812 l 960 0 l 791 0 l 497 631 l 203 0 l 35 0 l 413 812 l 497 994 l 582 812 z "},"å":{"ha":996,"x_min":35,"x_max":960,"o":"m 582 812 l 960 0 l 791 0 l 497 631 l 203 0 l 35 0 l 413 812 l 497 994 l 582 812 z "},"b":{"ha":780,"x_min":35,"x_max":736,"o":"m 455 401 l 288 401 l 288 169 l 496 169 q 547 190 526 169 q 568 240 568 210 l 568 401 l 736 401 l 736 275 q 656 80 736 161 q 462 0 576 0 l 118 0 l 118 674 l 288 674 l 288 570 l 486 570 q 544 594 519 570 q 568 652 568 618 l 568 803 l 118 803 l 118 804 l 35 804 l 118 972 l 568 972 l 568 972 l 735 972 l 735 972 l 736 972 l 736 803 l 736 683 q 654 484 736 566 q 455 401 572 401 z "},"c":{"ha":908,"x_min":35,"x_max":866,"o":"m 519 169 q 644 195 585 169 q 748 269 703 222 l 866 151 q 709 40 798 79 q 519 0 620 0 q 331 39 420 0 q 176 145 241 79 q 73 304 111 212 q 35 497 35 396 q 73 690 35 598 q 176 849 111 783 q 331 955 241 916 q 519 994 420 994 q 709 955 620 994 q 866 844 798 915 l 748 726 q 519 825 653 825 q 293 729 387 825 q 199 497 199 633 q 293 265 199 361 q 519 169 387 169 z "},"ç":{"ha":908,"x_min":35,"x_max":866,"o":"m 519 169 q 644 195 585 169 q 748 269 703 222 l 866 151 q 709 40 798 79 q 519 0 620 0 q 331 39 420 0 q 176 145 241 79 q 73 304 111 212 q 35 497 35 396 q 73 690 35 598 q 176 849 111 783 q 331 955 241 916 q 519 994 420 994 q 709 955 620 994 q 866 844 798 915 l 748 726 q 519 825 653 825 q 293 729 387 825 q 199 497 199 633 q 293 265 199 361 q 519 169 387 169 z "},"d":{"ha":904,"x_min":35,"x_max":861,"o":"m 375 972 q 564 934 474 972 q 719 830 654 895 q 823 675 784 765 q 861 486 861 585 q 823 297 861 387 q 719 142 784 208 q 564 39 654 77 q 375 0 474 0 l 118 0 l 118 674 l 288 674 l 288 169 l 375 169 q 599 262 506 169 q 692 486 692 355 q 650 645 692 572 q 534 761 608 718 q 375 803 461 803 l 118 803 l 118 804 l 35 804 l 118 972 l 118 972 l 375 972 z "},"e":{"ha":825,"x_min":35,"x_max":781,"o":"m 288 674 l 288 169 l 781 169 l 781 0 l 118 0 l 118 674 l 288 674 m 371 385 l 288 385 l 371 553 l 689 553 l 689 385 l 371 385 m 118 972 l 781 972 l 781 803 l 118 803 l 118 804 l 35 804 l 118 972 z "},"è":{"ha":825,"x_min":35,"x_max":781,"o":"m 288 674 l 288 169 l 781 169 l 781 0 l 118 0 l 118 674 l 288 674 m 371 385 l 288 385 l 371 553 l 689 553 l 689 385 l 371 385 m 118 972 l 781 972 l 781 803 l 118 803 l 118 804 l 35 804 l 118 972 z "},"é":{"ha":825,"x_min":35,"x_max":781,"o":"m 288 674 l 288 169 l 781 169 l 781 0 l 118 0 l 118 674 l 288 674 m 371 385 l 288 385 l 371 553 l 689 553 l 689 385 l 371 385 m 118 972 l 781 972 l 781 803 l 118 803 l 118 804 l 35 804 l 118 972 z "},"ê":{"ha":825,"x_min":35,"x_max":781,"o":"m 288 674 l 288 169 l 781 169 l 781 0 l 118 0 l 118 674 l 288 674 m 371 385 l 288 385 l 371 553 l 689 553 l 689 385 l 371 385 m 118 972 l 781 972 l 781 803 l 118 803 l 118 804 l 35 804 l 118 972 z "},"ë":{"ha":825,"x_min":35,"x_max":781,"o":"m 288 674 l 288 169 l 781 169 l 781 0 l 118 0 l 118 674 l 288 674 m 371 385 l 288 385 l 371 553 l 689 553 l 689 385 l 371 385 m 118 972 l 781 972 l 781 803 l 118 803 l 118 804 l 35 804 l 118 972 z "},"f":{"ha":825,"x_min":35,"x_max":781,"o":"m 118 674 l 288 674 l 288 0 l 118 0 l 118 674 m 371 553 l 689 553 l 689 385 l 371 385 l 288 385 l 371 553 m 118 972 l 781 972 l 781 803 l 118 803 l 118 804 l 35 804 l 118 972 z "},"g":{"ha":1046,"x_min":35,"x_max":1004,"o":"m 519 553 l 1004 553 l 1004 497 q 997 412 1004 451 q 994 396 996 407 q 991 385 991 386 q 822 109 954 218 q 519 0 690 0 q 331 39 420 0 q 176 145 241 79 q 73 304 111 212 q 35 497 35 396 q 73 690 35 598 q 176 849 111 783 q 331 955 241 916 q 519 994 420 994 q 727 946 629 994 q 892 814 824 899 l 765 707 q 656 794 720 762 q 519 825 592 825 q 293 729 387 825 q 199 497 199 633 q 293 265 199 361 q 519 169 387 169 q 703 229 621 169 q 819 385 785 289 l 435 385 l 519 553 l 519 553 z "},"h":{"ha":786,"x_min":35,"x_max":743,"o":"m 574 972 l 743 972 l 743 0 l 574 0 l 574 385 l 288 385 l 203 385 l 288 553 l 574 553 l 574 972 m 35 972 l 203 972 l 203 0 l 35 0 l 35 972 z "},"i":{"ha":332,"x_min":35,"x_max":288,"o":"m 118 972 l 288 972 l 288 0 l 118 0 l 118 804 l 35 804 l 118 972 z "},"ì":{"ha":332,"x_min":35,"x_max":288,"o":"m 118 972 l 288 972 l 288 0 l 118 0 l 118 804 l 35 804 l 118 972 z "},"í":{"ha":332,"x_min":35,"x_max":288,"o":"m 118 972 l 288 972 l 288 0 l 118 0 l 118 804 l 35 804 l 118 972 z "},"î":{"ha":332,"x_min":35,"x_max":288,"o":"m 118 972 l 288 972 l 288 0 l 118 0 l 118 804 l 35 804 l 118 972 z "},"ï":{"ha":332,"x_min":35,"x_max":288,"o":"m 118 972 l 288 972 l 288 0 l 118 0 l 118 804 l 35 804 l 118 972 z "},"j":{"ha":593,"x_min":35,"x_max":551,"o":"m 382 972 l 551 972 l 551 0 l 309 0 q 115 80 195 0 q 35 275 35 161 l 35 401 l 203 401 l 203 240 q 224 190 203 210 q 275 169 245 169 l 382 169 l 382 804 l 299 804 l 382 972 z "},"k":{"ha":667,"x_min":35,"x_max":623,"o":"m 296 441 q 460 397 385 441 q 579 278 536 353 q 623 115 623 203 l 623 0 l 454 0 l 454 110 q 406 224 454 177 q 292 272 359 272 l 287 272 l 287 0 l 118 0 l 118 804 l 35 804 l 118 972 l 287 972 l 287 444 l 454 972 l 623 972 l 455 441 l 287 441 l 296 441 z "},"l":{"ha":728,"x_min":35,"x_max":691,"o":"m 691 169 l 691 0 l 288 0 l 119 0 l 118 0 l 118 169 l 119 169 l 119 804 l 35 804 l 118 972 l 119 972 l 288 972 l 288 169 l 691 169 z "},"m":{"ha":1082,"x_min":35,"x_max":1038,"o":"m 288 0 l 118 0 l 118 674 l 288 674 l 288 0 m 1038 972 l 1038 804 l 1038 0 l 869 0 l 869 803 l 663 359 l 578 177 l 494 359 l 287 804 l 118 804 l 35 804 l 118 972 l 118 972 l 377 972 l 377 972 l 385 954 l 433 852 l 578 540 l 724 852 l 779 972 l 948 972 l 948 972 l 1038 972 l 1038 972 z "},"n":{"ha":871,"x_min":35,"x_max":827,"o":"m 288 0 l 118 0 l 118 674 l 288 674 l 288 0 m 658 972 l 827 972 l 827 0 l 658 266 l 316 804 l 118 804 l 35 804 l 118 972 l 118 972 l 209 972 l 377 972 l 658 550 l 658 972 z "},"ñ":{"ha":871,"x_min":35,"x_max":827,"o":"m 288 0 l 118 0 l 118 674 l 288 674 l 288 0 m 658 972 l 827 972 l 827 0 l 658 266 l 316 804 l 118 804 l 35 804 l 118 972 l 118 972 l 209 972 l 377 972 l 658 550 l 658 972 z "},"o":{"ha":1046,"x_min":35,"x_max":1004,"o":"m 519 994 q 708 955 618 994 q 862 849 798 916 q 965 690 927 783 q 1004 497 1004 598 q 965 304 1004 396 q 862 145 927 212 q 708 39 798 79 q 519 0 618 0 q 331 39 420 0 q 176 145 241 79 q 73 304 111 212 q 35 497 35 396 q 73 690 35 598 q 176 849 111 783 q 331 955 241 916 q 519 994 420 994 m 293 265 q 340 217 293 265 q 519 169 387 169 q 745 265 652 169 q 839 497 839 361 q 745 729 839 633 q 519 825 652 825 q 293 729 387 825 q 199 497 199 633 q 293 265 199 361 z "},"ò":{"ha":1046,"x_min":35,"x_max":1004,"o":"m 519 994 q 708 955 618 994 q 862 849 798 916 q 965 690 927 783 q 1004 497 1004 598 q 965 304 1004 396 q 862 145 927 212 q 708 39 798 79 q 519 0 618 0 q 331 39 420 0 q 176 145 241 79 q 73 304 111 212 q 35 497 35 396 q 73 690 35 598 q 176 849 111 783 q 331 955 241 916 q 519 994 420 994 m 293 265 q 340 217 293 265 q 519 169 387 169 q 745 265 652 169 q 839 497 839 361 q 745 729 839 633 q 519 825 652 825 q 293 729 387 825 q 199 497 199 633 q 293 265 199 361 z "},"ó":{"ha":1046,"x_min":35,"x_max":1004,"o":"m 519 994 q 708 955 618 994 q 862 849 798 916 q 965 690 927 783 q 1004 497 1004 598 q 965 304 1004 396 q 862 145 927 212 q 708 39 798 79 q 519 0 618 0 q 331 39 420 0 q 176 145 241 79 q 73 304 111 212 q 35 497 35 396 q 73 690 35 598 q 176 849 111 783 q 331 955 241 916 q 519 994 420 994 m 293 265 q 340 217 293 265 q 519 169 387 169 q 745 265 652 169 q 839 497 839 361 q 745 729 839 633 q 519 825 652 825 q 293 729 387 825 q 199 497 199 633 q 293 265 199 361 z "},"ô":{"ha":1046,"x_min":35,"x_max":1004,"o":"m 519 994 q 708 955 618 994 q 862 849 798 916 q 965 690 927 783 q 1004 497 1004 598 q 965 304 1004 396 q 862 145 927 212 q 708 39 798 79 q 519 0 618 0 q 331 39 420 0 q 176 145 241 79 q 73 304 111 212 q 35 497 35 396 q 73 690 35 598 q 176 849 111 783 q 331 955 241 916 q 519 994 420 994 m 293 265 q 340 217 293 265 q 519 169 387 169 q 745 265 652 169 q 839 497 839 361 q 745 729 839 633 q 519 825 652 825 q 293 729 387 825 q 199 497 199 633 q 293 265 199 361 z "},"õ":{"ha":1046,"x_min":35,"x_max":1004,"o":"m 519 994 q 708 955 618 994 q 862 849 798 916 q 965 690 927 783 q 1004 497 1004 598 q 965 304 1004 396 q 862 145 927 212 q 708 39 798 79 q 519 0 618 0 q 331 39 420 0 q 176 145 241 79 q 73 304 111 212 q 35 497 35 396 q 73 690 35 598 q 176 849 111 783 q 331 955 241 916 q 519 994 420 994 m 293 265 q 340 217 293 265 q 519 169 387 169 q 745 265 652 169 q 839 497 839 361 q 745 729 839 633 q 519 825 652 825 q 293 729 387 825 q 199 497 199 633 q 293 265 199 361 z "},"ö":{"ha":1046,"x_min":35,"x_max":1004,"o":"m 519 994 q 708 955 618 994 q 862 849 798 916 q 965 690 927 783 q 1004 497 1004 598 q 965 304 1004 396 q 862 145 927 212 q 708 39 798 79 q 519 0 618 0 q 331 39 420 0 q 176 145 241 79 q 73 304 111 212 q 35 497 35 396 q 73 690 35 598 q 176 849 111 783 q 331 955 241 916 q 519 994 420 994 m 293 265 q 340 217 293 265 q 519 169 387 169 q 745 265 652 169 q 839 497 839 361 q 745 729 839 633 q 519 825 652 825 q 293 729 387 825 q 199 497 199 633 q 293 265 199 361 z "},"ø":{"ha":1046,"x_min":35,"x_max":1004,"o":"m 519 994 q 708 955 618 994 q 862 849 798 916 q 965 690 927 783 q 1004 497 1004 598 q 965 304 1004 396 q 862 145 927 212 q 708 39 798 79 q 519 0 618 0 q 331 39 420 0 q 176 145 241 79 q 73 304 111 212 q 35 497 35 396 q 73 690 35 598 q 176 849 111 783 q 331 955 241 916 q 519 994 420 994 m 293 265 q 340 217 293 265 q 519 169 387 169 q 745 265 652 169 q 839 497 839 361 q 745 729 839 633 q 519 825 652 825 q 293 729 387 825 q 199 497 199 633 q 293 265 199 361 z "},"p":{"ha":905,"x_min":35,"x_max":861,"o":"m 567 972 q 775 886 688 972 q 861 678 861 800 q 775 471 861 557 q 567 385 688 385 l 288 385 l 288 0 l 118 0 l 118 674 l 288 674 l 288 553 l 567 553 q 656 590 619 553 q 692 678 692 627 q 656 766 692 730 q 567 803 619 803 l 118 803 l 118 804 l 35 804 l 118 972 l 567 972 z "},"q":{"ha":1040,"x_min":35,"x_max":1004,"o":"m 1004 497 q 970 315 1004 401 q 875 160 936 229 l 1004 0 l 835 0 l 774 75 l 668 207 l 435 497 l 604 497 l 768 292 q 839 497 839 382 q 745 729 839 633 q 519 825 651 825 q 293 729 387 825 q 199 497 199 633 q 266 297 199 385 q 435 180 332 209 l 435 7 q 231 97 322 28 q 87 272 140 166 q 35 497 35 377 q 73 690 35 598 q 176 849 111 783 q 330 955 241 916 q 519 994 420 994 q 707 955 618 994 q 862 849 797 916 q 965 690 927 783 q 1004 497 1004 598 z "},"r":{"ha":965,"x_min":35,"x_max":922,"o":"m 753 0 l 536 385 l 288 385 l 288 0 l 118 0 l 118 674 l 288 674 l 288 553 l 567 553 q 656 590 619 553 q 692 678 692 627 q 656 766 692 730 q 567 803 619 803 l 118 803 l 118 804 l 35 804 l 118 972 l 567 972 q 775 886 688 972 q 861 678 861 800 q 814 518 861 591 q 689 411 766 446 l 922 0 l 753 0 z "},"s":{"ha":819,"x_min":35,"x_max":778,"o":"m 501 553 q 697 472 616 553 q 778 277 778 391 q 697 81 778 162 q 501 0 616 0 l 118 0 l 35 0 l 118 169 l 501 169 q 577 200 546 169 q 608 277 608 232 q 577 353 608 321 q 501 385 546 385 l 328 385 q 121 471 207 385 q 35 678 35 557 q 121 886 35 800 q 329 972 208 972 l 675 972 l 675 803 l 334 803 q 247 771 285 803 q 204 690 209 739 q 237 594 199 635 q 329 553 274 553 l 501 553 z "},"t":{"ha":755,"x_min":35,"x_max":714,"o":"m 714 972 l 714 803 l 500 803 l 500 0 l 332 0 l 332 803 l 118 803 l 118 804 l 35 804 l 118 972 l 714 972 z "},"u":{"ha":871,"x_min":35,"x_max":828,"o":"m 659 972 l 828 972 l 828 397 q 775 198 828 289 q 630 53 722 106 q 431 0 539 0 q 232 53 323 0 q 88 198 141 106 q 35 397 35 289 l 35 972 l 203 972 l 203 397 q 270 236 203 302 q 431 169 337 169 q 592 236 526 169 q 659 397 659 302 l 659 804 l 576 804 l 659 972 z "},"ù":{"ha":871,"x_min":35,"x_max":828,"o":"m 659 972 l 828 972 l 828 397 q 775 198 828 289 q 630 53 722 106 q 431 0 539 0 q 232 53 323 0 q 88 198 141 106 q 35 397 35 289 l 35 972 l 203 972 l 203 397 q 270 236 203 302 q 431 169 337 169 q 592 236 526 169 q 659 397 659 302 l 659 804 l 576 804 l 659 972 z "},"ú":{"ha":871,"x_min":35,"x_max":828,"o":"m 659 972 l 828 972 l 828 397 q 775 198 828 289 q 630 53 722 106 q 431 0 539 0 q 232 53 323 0 q 88 198 141 106 q 35 397 35 289 l 35 972 l 203 972 l 203 397 q 270 236 203 302 q 431 169 337 169 q 592 236 526 169 q 659 397 659 302 l 659 804 l 576 804 l 659 972 z "},"û":{"ha":871,"x_min":35,"x_max":828,"o":"m 659 972 l 828 972 l 828 397 q 775 198 828 289 q 630 53 722 106 q 431 0 539 0 q 232 53 323 0 q 88 198 141 106 q 35 397 35 289 l 35 972 l 203 972 l 203 397 q 270 236 203 302 q 431 169 337 169 q 592 236 526 169 q 659 397 659 302 l 659 804 l 576 804 l 659 972 z "},"ü":{"ha":871,"x_min":35,"x_max":828,"o":"m 659 972 l 828 972 l 828 397 q 775 198 828 289 q 630 53 722 106 q 431 0 539 0 q 232 53 323 0 q 88 198 141 106 q 35 397 35 289 l 35 972 l 203 972 l 203 397 q 270 236 203 302 q 431 169 337 169 q 592 236 526 169 q 659 397 659 302 l 659 804 l 576 804 l 659 972 z "},"v":{"ha":980,"x_min":28,"x_max":953,"o":"m 783 972 l 953 972 l 574 159 l 490 -22 l 406 160 l 28 972 l 197 972 l 490 341 l 783 972 z "},"w":{"ha":998,"x_min":35,"x_max":955,"o":"m 579 613 l 495 432 l 495 431 l 350 120 l 294 0 l 125 0 l 35 0 l 35 0 l 35 169 l 35 972 l 203 972 l 203 169 l 410 613 l 495 795 l 579 614 l 579 613 m 955 169 l 955 0 l 955 0 l 865 0 l 696 0 l 695 0 l 640 120 l 495 431 l 664 431 l 785 170 l 785 804 l 702 804 l 785 972 l 785 972 l 955 972 l 955 169 z "},"x":{"ha":614,"x_min":35,"x_max":572,"o":"m 403 972 l 572 972 l 572 647 l 439 482 l 411 446 l 411 446 l 439 411 l 572 245 l 572 0 l 403 0 l 403 186 l 403 186 l 303 311 l 203 186 l 203 0 l 35 0 l 35 245 l 167 411 l 195 446 l 195 446 l 167 482 l 35 647 l 35 972 l 203 972 l 203 707 l 204 707 l 303 582 l 403 707 l 403 804 l 319 804 l 403 972 l 403 972 z "},"y":{"ha":817,"x_min":35,"x_max":774,"o":"m 605 972 l 774 972 l 774 972 l 320 0 l 150 0 l 404 540 l 404 541 l 605 972 m 203 972 l 259 852 l 404 541 l 235 541 l 113 803 l 113 804 l 35 972 l 35 972 l 203 972 z "},"ý":{"ha":817,"x_min":35,"x_max":774,"o":"m 605 972 l 774 972 l 774 972 l 320 0 l 150 0 l 404 540 l 404 541 l 605 972 m 203 972 l 259 852 l 404 541 l 235 541 l 113 803 l 113 804 l 35 972 l 35 972 l 203 972 z "},"ÿ":{"ha":817,"x_min":35,"x_max":774,"o":"m 605 972 l 774 972 l 774 972 l 320 0 l 150 0 l 404 540 l 404 541 l 605 972 m 203 972 l 259 852 l 404 541 l 235 541 l 113 803 l 113 804 l 35 972 l 35 972 l 203 972 z "},"z":{"ha":842,"x_min":49,"x_max":793,"o":"m 793 972 l 317 169 l 710 169 l 710 0 l 49 0 l 149 169 l 524 803 l 132 803 l 132 972 l 793 972 z "}," ":{"ha":454,"x_min":0,"x_max":0,"o":""},"­":{"ha":0,"x_min":0,"x_max":0,"o":""},"":{"ha":1001,"x_min":35,"x_max":960,"o":"m 791 0 l 604 401 l 391 401 l 203 0 l 35 0 l 413 812 l 497 994 l 582 812 l 960 0 l 791 0 z "},"":{"ha":780,"x_min":35,"x_max":736,"o":"m 736 683 q 656 486 736 569 q 736 289 736 404 q 651 84 736 169 q 446 0 566 0 l 288 0 l 119 0 l 119 674 l 288 674 l 288 570 l 486 570 q 544 594 519 570 q 568 652 568 618 l 568 714 q 542 777 568 751 q 478 803 515 803 l 119 803 l 119 804 l 35 804 l 119 972 l 446 972 q 651 887 566 972 q 736 683 736 803 m 486 401 l 288 401 l 288 169 l 478 169 q 542 195 515 169 q 568 258 568 220 l 568 321 q 544 378 568 354 q 486 401 520 401 z "},"":{"ha":908,"x_min":35,"x_max":866,"o":"m 428 404 q 409 424 428 404 q 391 497 391 443 q 428 590 391 551 q 519 629 465 629 q 610 590 572 629 q 648 497 648 551 q 610 404 648 443 q 519 366 572 366 q 428 404 465 366 m 519 169 q 644 195 585 169 q 748 269 703 222 l 866 151 q 709 40 798 79 q 519 0 620 0 q 331 39 420 0 q 176 145 241 79 q 73 304 111 212 q 35 497 35 396 q 73 690 35 598 q 176 849 111 783 q 331 955 241 916 q 519 994 420 994 q 709 955 620 994 q 866 844 798 915 l 748 726 q 519 825 653 825 q 293 729 387 825 q 199 497 199 633 q 293 265 199 361 q 519 169 387 169 z "},"":{"ha":903,"x_min":35,"x_max":861,"o":"m 563 935 q 607 916 563 935 q 719 830 652 897 q 824 674 786 763 q 861 486 861 585 q 814 278 861 376 q 686 113 768 181 q 569 41 631 67 q 375 0 475 0 l 118 0 l 118 169 l 118 674 l 118 674 l 288 674 l 588 251 q 600 262 592 254 q 692 486 692 355 q 599 710 692 617 q 375 804 506 804 l 118 804 l 35 804 l 118 972 l 118 972 l 375 972 q 563 935 474 972 m 375 169 q 468 183 421 169 l 288 437 l 288 169 l 375 169 z "},"":{"ha":825,"x_min":35,"x_max":781,"o":"m 118 169 l 781 169 l 781 0 l 118 0 l 35 0 l 118 169 m 646 385 l 118 385 l 35 385 l 118 553 l 646 553 l 646 385 m 118 972 l 781 972 l 781 803 l 118 803 l 118 804 l 35 804 l 118 972 z "},"":{"ha":825,"x_min":35,"x_max":781,"o":"m 202 553 l 689 553 l 689 385 l 288 385 l 288 0 l 118 0 l 118 553 l 202 553 m 118 972 l 781 972 l 781 803 l 118 803 l 118 804 l 35 804 l 118 972 z "},"":{"ha":1047,"x_min":35,"x_max":1004,"o":"m 617 581 l 1004 581 l 1004 526 q 997 441 1004 479 q 995 431 996 437 q 993 422 994 425 q 997 412 998 416 q 994 396 996 407 q 991 385 991 386 q 822 109 954 218 q 519 0 690 0 q 331 39 420 0 q 176 145 241 79 q 73 304 111 212 q 35 497 35 396 q 73 690 35 598 q 176 849 111 783 q 331 955 241 916 q 519 994 420 994 q 727 946 629 994 q 892 814 824 899 l 765 707 q 656 794 720 762 q 519 825 592 825 q 293 729 387 825 q 199 497 199 633 q 293 265 199 361 q 519 169 387 169 q 703 229 621 169 q 819 385 785 289 q 828 412 823 397 l 617 412 q 519 366 578 366 q 428 404 466 366 q 391 497 391 443 q 428 590 391 551 q 519 629 466 629 q 617 581 578 629 z "},"":{"ha":786,"x_min":35,"x_max":743,"o":"m 574 972 l 743 972 l 743 0 l 574 0 l 574 292 l 288 292 l 203 292 l 288 461 l 574 461 l 574 972 m 490 511 l 203 511 l 203 0 l 35 0 l 35 972 l 203 972 l 203 680 l 490 680 l 574 680 l 490 511 z "},"":{"ha":412,"x_min":35,"x_max":371,"o":"m 288 169 l 371 169 l 288 0 l 118 0 l 118 804 l 35 804 l 118 972 l 288 972 l 288 169 z "},"":{"ha":594,"x_min":35,"x_max":551,"o":"m 382 972 l 551 972 l 551 258 q 476 76 551 152 q 293 0 400 0 q 110 76 186 0 q 35 258 35 152 l 35 401 l 203 401 l 203 258 q 230 195 203 221 q 293 169 256 169 q 356 195 330 169 q 382 258 382 221 l 382 804 l 299 804 l 382 972 z "},"":{"ha":667,"x_min":35,"x_max":623,"o":"m 623 972 l 455 441 l 623 0 l 454 0 l 287 438 l 287 0 l 118 0 l 118 804 l 35 804 l 118 972 l 287 972 l 287 444 l 454 972 l 623 972 z "},"":{"ha":755,"x_min":35,"x_max":691,"o":"m 548 169 l 691 312 l 691 0 l 522 0 l 288 0 l 119 0 l 118 0 l 118 169 l 119 169 l 119 804 l 35 804 l 118 972 l 119 972 l 288 972 l 288 169 l 548 169 z "},"":{"ha":997,"x_min":35,"x_max":955,"o":"m 302 954 l 350 852 l 495 540 l 579 359 l 495 177 l 410 359 l 399 385 l 204 804 l 203 804 l 203 0 l 35 0 l 35 804 l 35 972 l 294 972 l 294 972 l 302 954 m 955 972 l 955 804 l 955 0 l 786 0 l 786 803 l 664 540 l 495 540 l 640 852 l 696 972 l 865 972 l 865 972 l 955 972 l 955 972 z "},"":{"ha":787,"x_min":35,"x_max":743,"o":"m 35 972 l 203 972 l 203 0 l 35 0 l 35 972 m 574 972 l 743 972 l 743 0 l 203 797 l 410 797 l 574 550 l 574 972 z "},"":{"ha":1046,"x_min":35,"x_max":1004,"o":"m 330 955 q 375 975 330 955 q 519 994 420 994 q 707 955 618 994 q 862 849 797 916 q 965 690 927 783 q 1004 497 1004 598 q 965 304 1004 396 q 862 145 927 212 q 707 39 797 79 q 519 0 618 0 q 330 39 420 0 q 176 145 241 79 q 73 304 111 212 q 35 497 35 396 q 73 690 35 598 q 176 849 111 783 q 330 955 241 916 m 293 265 q 340 217 293 265 q 519 169 387 169 q 745 265 651 169 q 839 497 839 361 q 745 729 839 633 q 519 825 651 825 q 293 729 387 825 q 199 497 199 633 q 293 265 199 361 m 428 590 q 447 609 428 590 q 519 629 465 629 q 610 590 572 629 q 648 497 648 551 q 610 404 648 443 q 519 366 572 366 q 428 404 465 366 q 391 497 391 443 q 428 590 391 551 z "},"":{"ha":819,"x_min":35,"x_max":777,"o":"m 691 886 q 754 792 732 846 q 777 678 777 738 q 691 470 777 556 q 484 385 605 385 l 203 385 l 288 553 l 484 553 q 572 590 536 553 q 608 678 608 626 q 572 766 608 730 q 484 803 536 803 l 203 803 l 203 0 l 35 0 l 35 972 l 484 972 q 691 886 606 972 z "},"":{"ha":1040,"x_min":35,"x_max":1004,"o":"m 1004 497 q 970 315 1004 401 q 875 160 936 229 l 1004 0 l 835 0 l 774 75 l 668 207 l 271 704 q 199 497 199 614 q 266 297 199 385 q 435 180 332 209 l 435 7 q 231 97 322 28 q 87 272 140 166 q 35 497 35 377 q 73 690 35 598 q 176 849 111 783 q 330 955 241 916 q 519 994 420 994 q 707 955 618 994 q 862 849 797 916 q 965 690 927 783 q 1004 497 1004 598 m 373 789 l 768 292 q 839 497 839 382 q 745 729 839 633 q 519 825 651 825 q 373 789 443 825 z "},"":{"ha":966,"x_min":35,"x_max":923,"o":"m 118 0 l 118 674 l 288 674 l 288 0 l 118 0 m 690 411 l 923 0 l 753 0 l 536 385 l 440 553 l 298 803 l 118 803 l 118 804 l 35 804 l 118 972 l 568 972 q 681 949 627 972 q 775 886 735 926 q 839 792 816 846 q 861 678 861 738 q 814 518 861 591 q 690 411 767 446 m 567 803 l 468 803 l 606 559 q 655 590 633 568 q 692 678 692 625 q 655 766 692 730 q 567 803 618 803 z "},"":{"ha":819,"x_min":35,"x_max":778,"o":"m 501 553 q 697 472 616 553 q 778 277 778 391 q 697 81 778 162 q 501 0 616 0 l 118 0 l 35 0 l 118 169 l 501 169 q 577 200 546 169 q 608 277 608 232 q 577 353 608 321 q 501 385 546 385 l 328 385 q 121 471 207 385 q 35 678 35 557 q 121 886 35 800 q 329 972 208 972 l 758 972 l 675 804 l 675 803 l 334 803 q 247 771 285 803 q 204 690 209 739 q 237 594 199 635 q 329 553 274 553 l 501 553 z "},"":{"ha":755,"x_min":35,"x_max":714,"o":"m 118 972 l 714 972 l 714 803 l 118 803 l 118 804 l 35 804 l 118 972 m 332 0 l 332 634 l 500 803 l 500 0 l 332 0 z "},"":{"ha":871,"x_min":35,"x_max":828,"o":"m 523 307 q 504 288 523 307 q 431 269 485 269 q 340 307 378 269 q 303 400 303 346 q 340 493 303 454 q 431 532 378 532 q 523 493 485 532 q 560 400 560 454 q 523 307 560 346 m 659 972 l 828 972 l 828 397 q 798 243 828 316 q 712 116 767 171 q 585 31 657 61 q 431 0 512 0 q 232 53 323 0 q 88 198 141 106 q 35 397 35 289 l 35 972 l 203 972 l 203 397 q 245 265 203 326 q 271 235 253 254 q 431 169 338 169 q 537 195 488 169 q 618 265 586 220 q 659 397 659 325 l 659 804 l 576 804 l 659 972 l 659 972 z "},"":{"ha":980,"x_min":28,"x_max":953,"o":"m 953 972 l 659 341 l 490 341 l 783 972 l 953 972 m 28 972 l 197 972 l 490 341 l 574 159 l 490 -22 l 406 160 l 28 972 z "},"":{"ha":997,"x_min":35,"x_max":955,"o":"m 955 169 l 955 0 l 955 0 l 865 0 l 696 0 l 695 0 l 640 120 l 495 431 l 350 120 l 294 0 l 125 0 l 35 0 l 35 0 l 35 169 l 35 972 l 203 972 l 203 169 l 410 613 l 410 614 l 579 614 l 579 613 l 785 170 l 785 804 l 702 804 l 785 972 l 785 972 l 955 972 l 955 169 z "},"":{"ha":673,"x_min":35,"x_max":629,"o":"m 629 972 l 500 680 l 332 680 l 459 972 l 629 972 m 416 486 l 416 486 l 628 0 l 459 0 l 332 292 l 203 0 l 35 0 l 163 292 l 332 292 l 332 293 l 247 486 l 248 488 l 247 486 l 35 972 l 204 972 l 321 704 l 321 705 l 416 486 z "},"":{"ha":774,"x_min":35,"x_max":731,"o":"m 203 972 l 467 399 l 467 0 l 298 0 l 298 399 l 35 972 l 35 972 l 203 972 m 562 972 l 731 972 l 731 972 l 552 583 l 383 583 l 562 972 z "},"":{"ha":675,"x_min":35,"x_max":633,"o":"m 35 972 l 633 972 l 633 680 l 464 517 l 203 266 l 203 170 l 633 170 l 633 0 l 35 0 l 35 293 l 203 456 l 464 707 l 464 804 l 35 804 l 35 972 z "},"":{"ha":994,"x_min":35,"x_max":960,"o":"m 791 0 l 604 401 l 391 401 l 203 0 l 35 0 l 413 812 l 497 994 l 582 812 l 960 0 l 791 0 z "},"":{"ha":780,"x_min":35,"x_max":736,"o":"m 736 683 q 656 486 736 569 q 736 289 736 404 q 651 84 736 169 q 446 0 566 0 l 288 0 l 119 0 l 119 674 l 288 674 l 288 570 l 486 570 q 544 594 519 570 q 568 652 568 618 l 568 714 q 542 777 568 751 q 478 803 515 803 l 119 803 l 119 804 l 35 804 l 119 972 l 446 972 q 651 887 566 972 q 736 683 736 803 m 486 401 l 288 401 l 288 169 l 478 169 q 542 195 515 169 q 568 258 568 220 l 568 321 q 544 378 568 354 q 486 401 520 401 z "},"":{"ha":908,"x_min":35,"x_max":866,"o":"m 428 404 q 409 424 428 404 q 391 497 391 443 q 428 590 391 551 q 519 629 465 629 q 610 590 572 629 q 648 497 648 551 q 610 404 648 443 q 519 366 572 366 q 428 404 465 366 m 519 169 q 644 195 585 169 q 748 269 703 222 l 866 151 q 709 40 798 79 q 519 0 620 0 q 331 39 420 0 q 176 145 241 79 q 73 304 111 212 q 35 497 35 396 q 73 690 35 598 q 176 849 111 783 q 331 955 241 916 q 519 994 420 994 q 709 955 620 994 q 866 844 798 915 l 748 726 q 519 825 653 825 q 293 729 387 825 q 199 497 199 633 q 293 265 199 361 q 519 169 387 169 z "},"":{"ha":903,"x_min":35,"x_max":861,"o":"m 563 935 q 607 916 563 935 q 719 830 652 897 q 824 674 786 763 q 861 486 861 585 q 814 278 861 376 q 686 113 768 181 q 569 41 631 67 q 375 0 475 0 l 118 0 l 118 169 l 118 674 l 118 674 l 288 674 l 588 251 q 600 262 592 254 q 692 486 692 355 q 599 710 692 617 q 375 804 506 804 l 118 804 l 35 804 l 118 972 l 118 972 l 375 972 q 563 935 474 972 m 375 169 q 468 183 421 169 l 288 437 l 288 169 l 375 169 z "},"":{"ha":825,"x_min":35,"x_max":781,"o":"m 118 169 l 781 169 l 781 0 l 118 0 l 35 0 l 118 169 m 646 385 l 118 385 l 35 385 l 118 553 l 646 553 l 646 385 m 118 972 l 781 972 l 781 803 l 118 803 l 118 804 l 35 804 l 118 972 z "},"":{"ha":825,"x_min":35,"x_max":781,"o":"m 202 553 l 689 553 l 689 385 l 288 385 l 288 0 l 118 0 l 118 553 l 202 553 m 118 972 l 781 972 l 781 803 l 118 803 l 118 804 l 35 804 l 118 972 z "},"":{"ha":1047,"x_min":35,"x_max":1004,"o":"m 617 581 l 1004 581 l 1004 526 q 997 441 1004 479 q 995 431 996 437 q 993 422 994 425 q 997 412 998 416 q 994 396 996 407 q 991 385 991 386 q 822 109 954 218 q 519 0 690 0 q 331 39 420 0 q 176 145 241 79 q 73 304 111 212 q 35 497 35 396 q 73 690 35 598 q 176 849 111 783 q 331 955 241 916 q 519 994 420 994 q 727 946 629 994 q 892 814 824 899 l 765 707 q 656 794 720 762 q 519 825 592 825 q 293 729 387 825 q 199 497 199 633 q 293 265 199 361 q 519 169 387 169 q 703 229 621 169 q 819 385 785 289 q 828 412 823 397 l 617 412 q 519 366 578 366 q 428 404 466 366 q 391 497 391 443 q 428 590 391 551 q 519 629 466 629 q 617 581 578 629 z "},"":{"ha":786,"x_min":35,"x_max":743,"o":"m 574 972 l 743 972 l 743 0 l 574 0 l 574 292 l 288 292 l 203 292 l 288 461 l 574 461 l 574 972 m 490 511 l 203 511 l 203 0 l 35 0 l 35 972 l 203 972 l 203 680 l 490 680 l 574 680 l 490 511 z "},"":{"ha":412,"x_min":35,"x_max":371,"o":"m 288 169 l 371 169 l 288 0 l 118 0 l 118 804 l 35 804 l 118 972 l 288 972 l 288 169 z "},"":{"ha":594,"x_min":35,"x_max":551,"o":"m 382 972 l 551 972 l 551 258 q 476 76 551 152 q 293 0 400 0 q 110 76 186 0 q 35 258 35 152 l 35 401 l 203 401 l 203 258 q 230 195 203 221 q 293 169 256 169 q 356 195 330 169 q 382 258 382 221 l 382 804 l 299 804 l 382 972 z "},"":{"ha":667,"x_min":35,"x_max":623,"o":"m 623 972 l 455 441 l 623 0 l 454 0 l 287 438 l 287 0 l 118 0 l 118 804 l 35 804 l 118 972 l 287 972 l 287 444 l 454 972 l 623 972 z "},"":{"ha":755,"x_min":35,"x_max":691,"o":"m 548 169 l 691 312 l 691 0 l 522 0 l 288 0 l 119 0 l 118 0 l 118 169 l 119 169 l 119 804 l 35 804 l 118 972 l 119 972 l 288 972 l 288 169 l 548 169 z "},"":{"ha":997,"x_min":35,"x_max":955,"o":"m 302 954 l 350 852 l 495 540 l 579 359 l 495 177 l 410 359 l 399 385 l 204 804 l 203 804 l 203 0 l 35 0 l 35 804 l 35 972 l 294 972 l 294 972 l 302 954 m 955 972 l 955 804 l 955 0 l 786 0 l 786 803 l 664 540 l 495 540 l 640 852 l 696 972 l 865 972 l 865 972 l 955 972 l 955 972 z "},"":{"ha":787,"x_min":35,"x_max":743,"o":"m 35 972 l 203 972 l 203 0 l 35 0 l 35 972 m 574 972 l 743 972 l 743 0 l 203 797 l 410 797 l 574 550 l 574 972 z "},"":{"ha":1046,"x_min":35,"x_max":1004,"o":"m 330 955 q 375 975 330 955 q 519 994 420 994 q 707 955 618 994 q 862 849 797 916 q 965 690 927 783 q 1004 497 1004 598 q 965 304 1004 396 q 862 145 927 212 q 707 39 797 79 q 519 0 618 0 q 330 39 420 0 q 176 145 241 79 q 73 304 111 212 q 35 497 35 396 q 73 690 35 598 q 176 849 111 783 q 330 955 241 916 m 293 265 q 340 217 293 265 q 519 169 387 169 q 745 265 651 169 q 839 497 839 361 q 745 729 839 633 q 519 825 651 825 q 293 729 387 825 q 199 497 199 633 q 293 265 199 361 m 428 590 q 447 609 428 590 q 519 629 465 629 q 610 590 572 629 q 648 497 648 551 q 610 404 648 443 q 519 366 572 366 q 428 404 465 366 q 391 497 391 443 q 428 590 391 551 z "},"":{"ha":819,"x_min":35,"x_max":777,"o":"m 691 886 q 754 792 732 846 q 777 678 777 738 q 691 470 777 556 q 484 385 605 385 l 203 385 l 288 553 l 484 553 q 572 590 536 553 q 608 678 608 626 q 572 766 608 730 q 484 803 536 803 l 203 803 l 203 0 l 35 0 l 35 972 l 484 972 q 691 886 606 972 z "},"":{"ha":1040,"x_min":35,"x_max":1004,"o":"m 1004 497 q 970 315 1004 401 q 875 160 936 229 l 1004 0 l 835 0 l 774 75 l 668 207 l 271 704 q 199 497 199 614 q 266 297 199 385 q 435 180 332 209 l 435 7 q 231 97 322 28 q 87 272 140 166 q 35 497 35 377 q 73 690 35 598 q 176 849 111 783 q 330 955 241 916 q 519 994 420 994 q 707 955 618 994 q 862 849 797 916 q 965 690 927 783 q 1004 497 1004 598 m 373 789 l 768 292 q 839 497 839 382 q 745 729 839 633 q 519 825 651 825 q 373 789 443 825 z "},"":{"ha":966,"x_min":35,"x_max":923,"o":"m 118 0 l 118 674 l 288 674 l 288 0 l 118 0 m 690 411 l 923 0 l 753 0 l 536 385 l 440 553 l 298 803 l 118 803 l 118 804 l 35 804 l 118 972 l 568 972 q 681 949 627 972 q 775 886 735 926 q 839 792 816 846 q 861 678 861 738 q 814 518 861 591 q 690 411 767 446 m 567 803 l 468 803 l 606 559 q 655 590 633 568 q 692 678 692 625 q 655 766 692 730 q 567 803 618 803 z "},"":{"ha":819,"x_min":35,"x_max":778,"o":"m 501 553 q 697 472 616 553 q 778 277 778 391 q 697 81 778 162 q 501 0 616 0 l 118 0 l 35 0 l 118 169 l 501 169 q 577 200 546 169 q 608 277 608 232 q 577 353 608 321 q 501 385 546 385 l 328 385 q 121 471 207 385 q 35 678 35 557 q 121 886 35 800 q 329 972 208 972 l 758 972 l 675 804 l 675 803 l 334 803 q 247 771 285 803 q 204 690 209 739 q 237 594 199 635 q 329 553 274 553 l 501 553 z "},"":{"ha":755,"x_min":35,"x_max":714,"o":"m 118 972 l 714 972 l 714 803 l 118 803 l 118 804 l 35 804 l 118 972 m 332 0 l 332 634 l 500 803 l 500 0 l 332 0 z "},"":{"ha":871,"x_min":35,"x_max":828,"o":"m 523 307 q 504 288 523 307 q 431 269 485 269 q 340 307 378 269 q 303 400 303 346 q 340 493 303 454 q 431 532 378 532 q 523 493 485 532 q 560 400 560 454 q 523 307 560 346 m 659 972 l 828 972 l 828 397 q 798 243 828 316 q 712 116 767 171 q 585 31 657 61 q 431 0 512 0 q 232 53 323 0 q 88 198 141 106 q 35 397 35 289 l 35 972 l 203 972 l 203 397 q 245 265 203 326 q 271 235 253 254 q 431 169 338 169 q 537 195 488 169 q 618 265 586 220 q 659 397 659 325 l 659 804 l 576 804 l 659 972 l 659 972 z "},"":{"ha":980,"x_min":28,"x_max":953,"o":"m 953 972 l 659 341 l 490 341 l 783 972 l 953 972 m 28 972 l 197 972 l 490 341 l 574 159 l 490 -22 l 406 160 l 28 972 z "},"":{"ha":997,"x_min":35,"x_max":955,"o":"m 955 169 l 955 0 l 955 0 l 865 0 l 696 0 l 695 0 l 640 120 l 495 431 l 350 120 l 294 0 l 125 0 l 35 0 l 35 0 l 35 169 l 35 972 l 203 972 l 203 169 l 410 613 l 410 614 l 579 614 l 579 613 l 785 170 l 785 804 l 702 804 l 785 972 l 785 972 l 955 972 l 955 169 z "},"":{"ha":673,"x_min":35,"x_max":629,"o":"m 629 972 l 500 680 l 332 680 l 459 972 l 629 972 m 416 486 l 416 486 l 628 0 l 459 0 l 332 292 l 203 0 l 35 0 l 163 292 l 332 292 l 332 293 l 247 486 l 248 488 l 247 486 l 35 972 l 204 972 l 321 704 l 321 705 l 416 486 z "},"":{"ha":774,"x_min":35,"x_max":731,"o":"m 203 972 l 467 399 l 467 0 l 298 0 l 298 399 l 35 972 l 35 972 l 203 972 m 562 972 l 731 972 l 731 972 l 552 583 l 383 583 l 562 972 z "},"":{"ha":696,"x_min":49,"x_max":647,"o":"m 49 972 l 647 972 l 647 680 l 478 517 l 218 266 l 218 170 l 647 170 l 647 0 l 49 0 l 49 293 l 218 456 l 478 707 l 478 804 l 49 804 l 49 972 z "},"":{"ha":1596,"x_min":35,"x_max":1553,"o":"m 497 994 l 582 812 l 960 0 l 791 0 l 497 631 l 203 0 l 35 0 l 413 812 l 497 994 m 1175 812 l 1553 0 l 1384 0 l 1090 631 l 1090 631 l 920 265 l 836 447 l 1006 812 l 1090 994 l 1090 994 l 1175 812 z "},"":{"ha":1540,"x_min":35,"x_max":1497,"o":"m 1150 169 q 1275 195 1216 169 q 1379 269 1334 222 l 1497 151 q 1340 40 1429 79 q 1150 0 1251 0 q 980 32 1061 0 q 834 121 899 63 q 780 79 802 92 q 519 0 662 0 q 330 39 420 0 q 176 145 241 79 q 73 304 111 212 q 35 497 35 396 q 73 690 35 598 q 176 849 111 783 q 330 955 241 916 q 519 994 420 994 q 780 916 661 994 q 675 783 718 859 q 519 825 603 825 q 293 729 387 825 q 199 497 199 633 q 293 265 199 361 q 519 169 387 169 q 674 211 601 169 q 730 252 704 228 q 666 497 666 367 q 704 690 666 598 q 807 849 743 783 q 962 955 872 916 q 1150 994 1051 994 q 1340 955 1251 994 q 1497 844 1429 915 l 1379 726 q 1150 825 1284 825 q 924 729 1018 825 q 831 497 831 633 q 924 265 831 361 q 1150 169 1018 169 z "},"":{"ha":1643,"x_min":35,"x_max":1600,"o":"m 288 674 l 288 169 l 781 169 l 781 0 l 118 0 l 118 674 l 288 674 m 371 385 l 288 385 l 371 553 l 689 553 l 689 385 l 371 385 m 1106 674 l 1106 169 l 1600 169 l 1600 0 l 937 0 l 937 674 l 1106 674 m 1190 385 l 1106 385 l 1190 553 l 1508 553 l 1508 385 l 1190 385 m 118 972 l 1600 972 l 1600 803 l 118 803 l 118 804 l 35 804 l 118 972 z "},"":{"ha":1632,"x_min":35,"x_max":1588,"o":"m 288 674 l 288 169 l 781 169 l 781 0 l 118 0 l 118 674 l 288 674 m 371 385 l 288 385 l 371 553 l 689 553 l 689 385 l 371 385 m 926 674 l 1095 674 l 1095 0 l 926 0 l 926 674 m 1179 553 l 1496 553 l 1496 385 l 1179 385 l 1095 385 l 1179 553 m 118 972 l 1588 972 l 1588 803 l 118 803 l 118 804 l 35 804 l 118 972 z "},"":{"ha":1529,"x_min":35,"x_max":1485,"o":"m 991 674 l 991 169 l 1485 169 l 1485 0 l 822 0 l 822 674 l 991 674 m 1074 385 l 991 385 l 1074 553 l 1392 553 l 1392 385 l 1074 385 m 118 674 l 288 674 l 288 0 l 118 0 l 118 674 m 371 553 l 689 553 l 689 385 l 371 385 l 288 385 l 371 553 m 118 972 l 1485 972 l 1485 803 l 118 803 l 118 804 l 35 804 l 118 972 z "},"":{"ha":1530,"x_min":35,"x_max":1486,"o":"m 118 674 l 288 674 l 288 0 l 118 0 l 118 674 m 371 553 l 689 553 l 689 385 l 371 385 l 288 385 l 371 553 m 824 674 l 993 674 l 993 0 l 824 0 l 824 674 m 1076 553 l 1394 553 l 1394 385 l 1076 385 l 993 385 l 1076 553 m 118 972 l 1486 972 l 1486 803 l 118 803 l 118 804 l 35 804 l 118 972 z "},"":{"ha":1832,"x_min":35,"x_max":1791,"o":"m 991 553 l 1791 553 l 1791 497 q 1784 412 1791 455 q 1778 385 1782 405 q 1609 109 1741 218 q 1306 0 1477 0 q 1084 56 1187 0 q 913 208 981 112 q 742 56 845 112 q 519 0 638 0 q 331 39 420 0 q 176 145 241 79 q 73 304 111 212 q 35 497 35 396 q 73 690 35 598 q 176 849 111 783 q 331 955 241 916 q 519 994 420 994 q 727 946 629 994 q 892 814 824 899 l 765 707 q 656 794 720 762 q 519 825 592 825 q 293 729 387 825 q 199 497 199 633 q 293 265 199 361 q 519 169 387 169 q 703 229 621 169 q 819 385 785 289 l 435 385 l 519 553 l 519 553 l 825 553 q 906 777 839 676 q 1078 936 972 878 q 1306 994 1184 994 q 1514 946 1417 994 q 1679 814 1611 899 l 1552 707 q 1443 794 1507 762 q 1306 825 1379 825 q 1100 748 1189 825 q 991 553 1011 670 m 1306 169 q 1491 229 1409 169 q 1607 385 1573 289 l 1006 385 q 1122 229 1040 289 q 1306 169 1204 169 z "},"":{"ha":1291,"x_min":35,"x_max":1227,"o":"m 288 972 l 288 169 l 533 169 l 533 0 l 288 0 l 119 0 l 118 0 l 118 169 l 119 169 l 119 804 l 35 804 l 118 972 l 119 972 l 288 972 m 823 169 l 1227 169 l 1227 0 l 823 0 l 654 0 l 654 0 l 654 169 l 654 804 l 571 804 l 654 972 l 654 972 l 823 972 l 823 169 z "},"":{"ha":1809,"x_min":35,"x_max":1767,"o":"m 1282 994 q 1471 955 1381 994 q 1625 849 1560 916 q 1728 690 1690 783 q 1767 497 1767 598 q 1728 304 1767 396 q 1625 145 1690 212 q 1471 39 1560 79 q 1282 0 1381 0 q 1068 51 1168 0 q 901 191 968 102 q 855 139 881 165 q 702 37 788 73 q 519 0 615 0 q 330 39 420 0 q 176 145 241 79 q 73 304 111 212 q 35 497 35 396 q 73 690 35 598 q 176 849 111 783 q 330 955 241 916 q 519 994 420 994 q 702 957 615 994 q 855 854 788 920 q 768 703 800 788 q 659 792 724 760 q 519 825 593 825 q 293 729 387 825 q 199 497 199 633 q 293 265 199 361 q 519 169 387 169 q 658 202 593 169 q 768 292 723 235 q 814 370 797 329 q 798 497 798 433 q 814 624 798 563 q 901 803 840 724 q 1068 943 968 892 q 1282 994 1168 994 m 1282 169 q 1509 265 1415 169 q 1603 497 1603 361 q 1509 729 1603 633 q 1282 825 1415 825 q 1104 769 1184 825 q 987 624 1024 713 q 963 497 963 566 q 988 370 963 430 q 1104 224 1025 280 q 1282 169 1184 169 z "},"":{"ha":1733,"x_min":35,"x_max":1699,"o":"m 1571 160 l 1699 0 l 1530 0 l 1470 75 l 1470 75 l 1364 207 l 1131 497 l 1299 497 l 1464 292 q 1535 497 1535 381 q 1441 729 1535 633 q 1215 825 1347 825 q 1073 791 1139 825 q 962 698 1007 757 q 1004 497 1004 602 q 962 296 1004 392 q 875 160 931 224 l 923 100 l 1004 0 l 835 0 l 774 75 l 668 207 l 435 497 l 604 497 l 768 292 q 772 296 771 294 q 839 497 839 383 q 772 698 839 609 q 661 791 727 757 q 519 825 595 825 q 293 729 387 825 q 199 497 199 633 q 266 297 199 385 q 435 180 332 209 l 435 7 q 231 97 322 28 q 87 272 140 166 q 35 497 35 377 q 73 690 35 598 q 176 849 111 783 q 330 955 241 916 q 519 994 420 994 q 710 954 620 994 q 867 842 800 914 q 1024 954 934 914 q 1215 994 1114 994 q 1403 955 1314 994 q 1557 849 1493 916 q 1660 690 1622 783 q 1699 497 1699 598 q 1665 315 1699 401 q 1571 160 1632 228 z "},"":{"ha":1497,"x_min":35,"x_max":1454,"o":"m 1221 411 l 1454 0 l 1285 0 l 1067 385 l 705 385 l 922 0 l 753 0 l 536 385 l 288 385 l 288 0 l 118 0 l 118 674 l 288 674 l 288 553 l 567 553 q 656 590 619 553 q 692 678 692 627 q 656 766 692 730 q 567 803 619 803 l 118 803 l 118 804 l 35 804 l 118 972 l 1099 972 q 1306 886 1220 972 q 1392 678 1392 800 q 1345 518 1392 591 q 1221 411 1298 446 m 1099 553 q 1187 590 1150 553 q 1223 678 1223 627 q 1187 766 1223 730 q 1099 803 1150 803 l 833 803 q 861 678 861 742 q 833 553 861 614 l 1099 553 z "},"":{"ha":1494,"x_min":35,"x_max":1452,"o":"m 1175 553 q 1371 472 1290 553 q 1452 277 1452 391 q 1371 81 1452 162 q 1175 0 1290 0 l 118 0 l 35 0 l 118 169 l 501 169 q 577 200 546 169 q 608 277 608 232 q 577 353 608 321 q 501 385 546 385 l 329 385 q 121 471 208 385 q 35 678 35 557 q 121 886 35 800 q 329 972 208 972 l 675 972 l 675 803 l 334 803 q 247 771 285 803 q 204 690 209 739 q 237 594 199 635 q 329 553 274 553 l 501 553 q 697 472 616 553 q 778 277 778 391 q 756 169 778 220 l 1175 169 q 1252 200 1220 169 q 1283 277 1283 232 q 1252 353 1283 321 q 1175 385 1220 385 l 1003 385 q 795 471 882 385 q 709 678 709 557 q 795 886 709 800 q 1003 972 882 972 l 1349 972 l 1349 803 l 1008 803 q 921 771 959 803 q 879 690 884 739 q 911 594 874 635 q 1003 553 948 553 l 1175 553 z "},"":{"ha":1270,"x_min":35,"x_max":1227,"o":"m 118 972 l 1227 972 l 1227 803 l 1015 803 l 1015 0 l 845 0 l 845 803 l 500 803 l 500 0 l 332 0 l 332 803 l 118 803 l 118 804 l 35 804 l 118 972 z "},"":{"ha":1329,"x_min":35,"x_max":1286,"o":"m 1286 972 l 810 169 l 1203 169 l 1203 0 l 35 0 l 135 169 l 510 803 l 118 803 l 118 972 l 1286 972 m 642 169 l 1017 803 l 679 803 l 304 169 l 642 169 z "},"":{"ha":1590,"x_min":35,"x_max":1553,"o":"m 497 994 l 582 812 l 960 0 l 791 0 l 497 631 l 203 0 l 35 0 l 413 812 l 497 994 m 1175 812 l 1553 0 l 1384 0 l 1090 631 l 1090 631 l 920 265 l 836 447 l 1006 812 l 1090 994 l 1090 994 l 1175 812 z "},"":{"ha":1540,"x_min":35,"x_max":1497,"o":"m 1150 169 q 1275 195 1216 169 q 1379 269 1334 222 l 1497 151 q 1340 40 1429 79 q 1150 0 1251 0 q 980 32 1061 0 q 834 121 899 63 q 780 79 802 92 q 519 0 662 0 q 330 39 420 0 q 176 145 241 79 q 73 304 111 212 q 35 497 35 396 q 73 690 35 598 q 176 849 111 783 q 330 955 241 916 q 519 994 420 994 q 780 916 661 994 q 675 783 718 859 q 519 825 603 825 q 293 729 387 825 q 199 497 199 633 q 293 265 199 361 q 519 169 387 169 q 674 211 601 169 q 730 252 704 228 q 666 497 666 367 q 704 690 666 598 q 807 849 743 783 q 962 955 872 916 q 1150 994 1052 994 q 1340 955 1251 994 q 1497 844 1429 915 l 1379 726 q 1150 825 1284 825 q 924 729 1018 825 q 831 497 831 633 q 924 265 831 361 q 1150 169 1018 169 z "},"":{"ha":1643,"x_min":35,"x_max":1600,"o":"m 288 674 l 288 169 l 781 169 l 781 0 l 118 0 l 118 674 l 288 674 m 371 385 l 288 385 l 371 553 l 689 553 l 689 385 l 371 385 m 1106 674 l 1106 169 l 1600 169 l 1600 0 l 937 0 l 937 674 l 1106 674 m 1190 385 l 1106 385 l 1190 553 l 1508 553 l 1508 385 l 1190 385 m 118 972 l 1600 972 l 1600 803 l 118 803 l 118 804 l 35 804 l 118 972 z "},"":{"ha":1632,"x_min":35,"x_max":1588,"o":"m 288 674 l 288 169 l 781 169 l 781 0 l 118 0 l 118 674 l 288 674 m 371 385 l 288 385 l 371 553 l 689 553 l 689 385 l 371 385 m 926 674 l 1095 674 l 1095 0 l 926 0 l 926 674 m 1179 553 l 1496 553 l 1496 385 l 1179 385 l 1095 385 l 1179 553 m 118 972 l 1588 972 l 1588 803 l 118 803 l 118 804 l 35 804 l 118 972 z "},"":{"ha":1529,"x_min":35,"x_max":1485,"o":"m 991 674 l 991 169 l 1485 169 l 1485 0 l 822 0 l 822 674 l 991 674 m 1074 385 l 991 385 l 1074 553 l 1392 553 l 1392 385 l 1074 385 m 118 674 l 288 674 l 288 0 l 118 0 l 118 674 m 371 553 l 689 553 l 689 385 l 371 385 l 288 385 l 371 553 m 118 972 l 1485 972 l 1485 803 l 118 803 l 118 804 l 35 804 l 118 972 z "},"":{"ha":1832,"x_min":35,"x_max":1791,"o":"m 991 553 l 1791 553 l 1791 497 q 1784 412 1791 455 q 1778 385 1782 405 q 1609 109 1741 218 q 1306 0 1477 0 q 1084 56 1187 0 q 913 208 981 112 q 742 56 845 112 q 519 0 638 0 q 331 39 420 0 q 176 145 241 79 q 73 304 111 212 q 35 497 35 396 q 73 690 35 598 q 176 849 111 783 q 331 955 241 916 q 519 994 420 994 q 727 946 629 994 q 892 814 824 899 l 765 707 q 656 794 720 762 q 519 825 592 825 q 293 729 387 825 q 199 497 199 633 q 293 265 199 361 q 519 169 387 169 q 703 229 621 169 q 819 385 785 289 l 435 385 l 519 553 l 519 553 l 825 553 q 906 777 839 676 q 1078 936 972 878 q 1306 994 1184 994 q 1514 946 1417 994 q 1679 814 1611 899 l 1552 707 q 1443 794 1507 762 q 1306 825 1379 825 q 1100 748 1189 825 q 991 553 1011 670 m 1306 169 q 1491 229 1409 169 q 1607 385 1573 289 l 1006 385 q 1122 229 1040 289 q 1306 169 1204 169 z "},"":{"ha":1293,"x_min":35,"x_max":1227,"o":"m 288 972 l 288 169 l 533 169 l 533 0 l 288 0 l 119 0 l 118 0 l 118 169 l 119 169 l 119 804 l 35 804 l 118 972 l 119 972 l 288 972 m 823 169 l 1227 169 l 1227 0 l 823 0 l 654 0 l 654 0 l 654 169 l 654 804 l 571 804 l 654 972 l 654 972 l 823 972 l 823 169 z "},"":{"ha":1872,"x_min":69,"x_max":1802,"o":"m 1317 994 q 1506 955 1416 994 q 1660 849 1595 916 q 1764 690 1725 783 q 1802 497 1802 598 q 1764 304 1802 396 q 1660 145 1725 212 q 1506 39 1595 79 q 1317 0 1416 0 q 1103 51 1202 0 q 936 191 1004 102 q 890 139 916 165 q 737 37 823 73 q 554 0 650 0 q 366 39 455 0 q 211 145 276 79 q 107 304 146 212 q 69 497 69 396 q 107 690 69 598 q 211 849 146 783 q 366 955 276 916 q 554 994 455 994 q 737 957 650 994 q 890 854 823 920 q 803 703 835 786 q 693 792 758 760 q 554 825 629 825 q 328 729 422 825 q 234 497 234 633 q 328 265 234 361 q 554 169 422 169 q 693 202 628 169 q 803 292 758 235 q 848 370 831 329 q 833 497 833 433 q 849 624 833 563 q 936 803 875 723 q 1103 943 1004 892 q 1317 994 1202 994 m 1317 169 q 1543 265 1449 169 q 1637 497 1637 361 q 1543 729 1637 633 q 1317 825 1449 825 q 1139 769 1219 825 q 1022 624 1059 713 q 998 497 998 566 q 1023 370 998 430 q 1139 224 1059 280 q 1317 169 1219 169 z "},"":{"ha":1733,"x_min":35,"x_max":1699,"o":"m 1571 160 l 1699 0 l 1530 0 l 1470 75 l 1470 75 l 1364 207 l 1131 497 l 1299 497 l 1464 292 q 1535 497 1535 381 q 1441 729 1535 633 q 1215 825 1347 825 q 1073 791 1139 825 q 962 698 1007 757 q 1004 497 1004 602 q 962 296 1004 392 q 875 160 931 224 l 923 100 l 1004 0 l 835 0 l 774 75 l 668 207 l 435 497 l 604 497 l 768 292 q 772 296 771 294 q 839 497 839 383 q 772 698 839 609 q 661 791 727 757 q 519 825 595 825 q 293 729 387 825 q 199 497 199 633 q 266 297 199 385 q 435 180 332 209 l 435 7 q 231 97 322 28 q 87 272 140 166 q 35 497 35 377 q 73 690 35 598 q 176 849 111 783 q 330 955 241 916 q 519 994 420 994 q 710 954 620 994 q 867 842 800 914 q 1024 954 934 914 q 1215 994 1114 994 q 1403 955 1314 994 q 1557 849 1493 916 q 1660 690 1622 783 q 1699 497 1699 598 q 1665 315 1699 401 q 1571 160 1632 228 z "},"":{"ha":1497,"x_min":35,"x_max":1454,"o":"m 1221 411 l 1454 0 l 1285 0 l 1067 385 l 705 385 l 922 0 l 753 0 l 536 385 l 288 385 l 288 0 l 118 0 l 118 674 l 288 674 l 288 553 l 567 553 q 656 590 619 553 q 692 678 692 627 q 656 766 692 730 q 567 803 619 803 l 118 803 l 118 804 l 35 804 l 118 972 l 1099 972 q 1306 886 1220 972 q 1392 678 1392 800 q 1345 518 1392 591 q 1221 411 1298 446 m 1099 553 q 1187 590 1150 553 q 1223 678 1223 627 q 1187 766 1223 730 q 1099 803 1150 803 l 833 803 q 861 678 861 742 q 833 553 861 614 l 1099 553 z "},"":{"ha":1494,"x_min":35,"x_max":1452,"o":"m 1175 553 q 1371 472 1290 553 q 1452 277 1452 391 q 1371 81 1452 162 q 1175 0 1290 0 l 118 0 l 35 0 l 118 169 l 501 169 q 577 200 546 169 q 608 277 608 232 q 577 353 608 321 q 501 385 546 385 l 329 385 q 121 471 208 385 q 35 678 35 557 q 121 886 35 800 q 329 972 208 972 l 675 972 l 675 803 l 334 803 q 247 771 285 803 q 204 690 209 739 q 237 594 199 635 q 329 553 274 553 l 501 553 q 697 472 616 553 q 778 277 778 391 q 755 169 778 221 l 1175 169 q 1252 200 1220 169 q 1283 277 1283 232 q 1252 353 1283 321 q 1175 385 1220 385 l 1003 385 q 795 471 882 385 q 709 678 709 557 q 795 886 709 800 q 1003 972 882 972 l 1349 972 l 1349 803 l 1008 803 q 921 771 959 803 q 879 690 884 739 q 911 594 874 635 q 1003 553 948 553 l 1175 553 z "},"":{"ha":1270,"x_min":35,"x_max":1227,"o":"m 118 972 l 1227 972 l 1227 803 l 1015 803 l 1015 0 l 845 0 l 845 803 l 500 803 l 500 0 l 332 0 l 332 803 l 118 803 l 118 804 l 35 804 l 118 972 z "},"":{"ha":1350,"x_min":49,"x_max":1300,"o":"m 1300 972 l 825 169 l 1217 169 l 1217 0 l 49 0 l 149 169 l 524 803 l 132 803 l 132 972 l 1300 972 m 655 169 l 1031 803 l 693 803 l 317 169 l 655 169 z "},"":{"ha":6000,"x_min":69,"x_max":5931,"o":"m 5046 972 l 4571 169 l 4964 169 l 4964 0 l 3786 0 l 3886 169 l 4262 803 l 3870 803 l 3870 972 l 5046 972 m 4055 169 l 4402 169 l 4778 803 l 4430 803 l 4055 169 m 532 994 l 616 812 l 994 0 l 825 0 l 532 631 l 239 0 l 69 0 l 448 812 l 532 994 m 3319 994 q 3507 955 3417 994 q 3662 849 3597 916 q 3765 690 3727 783 q 3803 497 3803 598 q 3765 304 3803 396 q 3662 145 3727 212 q 3507 39 3597 79 q 3319 0 3418 0 q 3130 39 3220 0 q 2976 145 3041 79 q 2872 304 2911 212 q 2834 497 2834 396 q 2872 690 2834 598 q 2976 849 2911 783 q 3130 955 3041 916 q 3319 994 3220 994 m 3093 265 q 3140 217 3093 265 q 3319 169 3187 169 q 3545 265 3451 169 q 3638 497 3638 361 q 3545 729 3638 633 q 3319 825 3451 825 q 3093 729 3187 825 q 2999 497 2999 633 q 3093 265 2999 361 m 2763 678 q 2715 518 2763 591 q 2591 411 2668 446 l 2824 0 l 2655 0 l 2437 385 l 2188 385 l 2188 0 l 2020 0 l 2020 674 l 2188 674 l 2188 553 l 2469 553 q 2557 590 2520 553 q 2593 678 2593 627 q 2557 766 2593 730 q 2469 803 2520 803 l 2020 803 l 2020 804 l 1936 804 l 2020 972 l 2469 972 q 2676 886 2590 972 q 2763 678 2763 800 m 1423 629 q 1520 581 1481 629 l 1907 581 l 1907 526 q 1900 441 1907 479 q 1898 431 1900 437 q 1896 422 1897 425 q 1900 412 1901 416 q 1897 396 1900 407 q 1894 385 1894 386 q 1725 109 1857 218 q 1422 0 1593 0 q 1234 39 1324 0 q 1079 145 1144 79 q 976 304 1015 212 q 938 497 938 396 q 976 690 938 598 q 1079 849 1015 783 q 1234 955 1144 916 q 1422 994 1324 994 q 1630 946 1533 994 q 1795 814 1727 899 l 1668 707 q 1559 794 1623 762 q 1422 825 1495 825 q 1196 729 1290 825 q 1103 497 1103 633 q 1196 265 1103 361 q 1422 169 1290 169 q 1607 229 1525 169 q 1723 385 1689 289 q 1731 412 1727 397 l 1520 412 q 1423 366 1481 366 q 1332 404 1369 366 q 1294 497 1294 443 q 1332 590 1294 551 q 1423 629 1369 629 m 5762 0 l 5575 401 l 5362 401 l 5175 0 l 5006 0 l 5384 812 l 5468 994 l 5553 812 l 5931 0 l 5762 0 z "},"":{"ha":6000,"x_min":69,"x_max":5931,"o":"m 5046 972 l 4571 169 l 4964 169 l 4964 0 l 3786 0 l 3886 169 l 4262 803 l 3870 803 l 3870 972 l 5046 972 m 4055 169 l 4402 169 l 4778 803 l 4430 803 l 4055 169 m 532 994 l 616 812 l 994 0 l 825 0 l 532 631 l 239 0 l 69 0 l 448 812 l 532 994 m 3319 994 q 3507 955 3417 994 q 3662 849 3597 916 q 3765 690 3727 783 q 3803 497 3803 598 q 3765 304 3803 396 q 3662 145 3727 212 q 3507 39 3597 79 q 3319 0 3418 0 q 3130 39 3220 0 q 2976 145 3041 79 q 2872 304 2911 212 q 2834 497 2834 396 q 2872 690 2834 598 q 2976 849 2911 783 q 3130 955 3041 916 q 3319 994 3220 994 m 3093 265 q 3140 217 3093 265 q 3319 169 3187 169 q 3545 265 3451 169 q 3638 497 3638 361 q 3545 729 3638 633 q 3319 825 3451 825 q 3093 729 3187 825 q 2999 497 2999 633 q 3093 265 2999 361 m 2763 678 q 2715 518 2763 591 q 2591 411 2668 446 l 2824 0 l 2655 0 l 2437 385 l 2188 385 l 2188 0 l 2020 0 l 2020 674 l 2188 674 l 2188 553 l 2469 553 q 2557 590 2520 553 q 2593 678 2593 627 q 2557 766 2593 730 q 2469 803 2520 803 l 2020 803 l 2020 804 l 1936 804 l 2020 972 l 2469 972 q 2676 886 2590 972 q 2763 678 2763 800 m 1423 629 q 1520 581 1481 629 l 1907 581 l 1907 526 q 1900 441 1907 479 q 1898 431 1900 437 q 1896 422 1897 425 q 1900 412 1901 416 q 1897 396 1900 407 q 1894 385 1894 386 q 1725 109 1857 218 q 1422 0 1593 0 q 1234 39 1324 0 q 1079 145 1144 79 q 976 304 1015 212 q 938 497 938 396 q 976 690 938 598 q 1079 849 1015 783 q 1234 955 1144 916 q 1422 994 1324 994 q 1630 946 1533 994 q 1795 814 1727 899 l 1668 707 q 1559 794 1623 762 q 1422 825 1495 825 q 1196 729 1290 825 q 1103 497 1103 633 q 1196 265 1103 361 q 1422 169 1290 169 q 1607 229 1525 169 q 1723 385 1689 289 q 1731 412 1727 397 l 1520 412 q 1423 366 1481 366 q 1332 404 1369 366 q 1294 497 1294 443 q 1332 590 1294 551 q 1423 629 1369 629 m 5762 0 l 5575 401 l 5362 401 l 5175 0 l 5006 0 l 5384 812 l 5468 994 l 5553 812 l 5931 0 l 5762 0 z "},"":{"ha":6000,"x_min":69,"x_max":5931,"o":"m 5046 972 l 4571 169 l 4964 169 l 4964 0 l 3786 0 l 3887 169 l 4262 803 l 3870 803 l 3870 972 l 5046 972 m 4055 169 l 4402 169 l 4778 803 l 4430 803 l 4055 169 m 532 994 l 616 812 l 994 0 l 825 0 l 532 631 l 239 0 l 69 0 l 448 812 l 532 994 m 3130 955 q 3175 975 3130 955 q 3319 994 3220 994 q 3507 955 3418 994 q 3662 849 3597 916 q 3765 690 3727 783 q 3803 497 3803 598 q 3765 304 3803 396 q 3662 145 3727 212 q 3507 39 3597 79 q 3319 0 3418 0 q 3130 39 3220 0 q 2976 145 3041 79 q 2872 304 2911 212 q 2834 497 2834 396 q 2872 690 2834 598 q 2976 849 2911 783 q 3130 955 3041 916 m 3093 265 q 3140 217 3093 265 q 3319 169 3187 169 q 3545 265 3451 169 q 3638 497 3638 361 q 3545 729 3638 633 q 3319 825 3451 825 q 3093 729 3187 825 q 2999 497 2999 633 q 3093 265 2999 361 m 2763 678 q 2715 518 2763 591 q 2591 411 2668 446 l 2824 0 l 2655 0 l 2437 385 l 2188 385 l 2188 0 l 2020 0 l 2020 674 l 2188 674 l 2188 553 l 2469 553 q 2557 590 2520 553 q 2593 678 2593 627 q 2557 766 2593 730 q 2469 803 2520 803 l 2020 803 l 2020 804 l 1936 804 l 2020 972 l 2469 972 q 2676 886 2590 972 q 2763 678 2763 800 m 1423 629 q 1520 581 1481 629 l 1907 581 l 1907 526 q 1900 441 1907 479 q 1898 431 1900 437 q 1896 422 1897 425 q 1900 412 1901 416 q 1897 396 1900 407 q 1894 385 1894 386 q 1725 109 1857 218 q 1422 0 1593 0 q 1234 39 1324 0 q 1079 145 1144 79 q 976 304 1015 212 q 938 497 938 396 q 976 690 938 598 q 1079 849 1015 783 q 1234 955 1144 916 q 1422 994 1324 994 q 1630 946 1533 994 q 1795 814 1727 899 l 1668 707 q 1559 794 1623 762 q 1422 825 1495 825 q 1196 729 1290 825 q 1103 497 1103 633 q 1196 265 1103 361 q 1422 169 1290 169 q 1607 229 1525 169 q 1723 385 1689 289 q 1731 412 1727 397 l 1520 412 q 1423 366 1481 366 q 1332 404 1369 366 q 1294 497 1294 443 q 1332 590 1294 551 q 1423 629 1369 629 m 5762 0 l 5575 401 l 5362 401 l 5175 0 l 5006 0 l 5384 812 l 5468 994 l 5553 812 l 5931 0 l 5762 0 z "},"ﬀ":{"ha":1530,"x_min":35,"x_max":1486,"o":"m 118 674 l 288 674 l 288 0 l 118 0 l 118 674 m 371 553 l 689 553 l 689 385 l 371 385 l 288 385 l 371 553 m 824 674 l 993 674 l 993 0 l 824 0 l 824 674 m 1076 553 l 1394 553 l 1394 385 l 1076 385 l 993 385 l 1076 553 m 118 972 l 1486 972 l 1486 803 l 118 803 l 118 804 l 35 804 l 118 972 z "}}}
